<svg width="24" height="24" viewBox="0 0 24 24" fill="none" xmlns="http://www.w3.org/2000/svg">
<path d="M7.4263 18.9078C8.25565 18.9078 8.93512 19.6018 8.93512 20.459C8.93512 21.306 8.25565 22 7.4263 22C6.58695 22 5.90748 21.306 5.90748 20.459C5.90748 19.6018 6.58695 18.9078 7.4263 18.9078ZM18.6675 18.9078C19.4969 18.9078 20.1764 19.6018 20.1764 20.459C20.1764 21.306 19.4969 22 18.6675 22C17.8282 22 17.1487 21.306 17.1487 20.459C17.1487 19.6018 17.8282 18.9078 18.6675 18.9078ZM2.77821 2.00009L2.88004 2.00871L5.26318 2.37507C5.60292 2.43732 5.85272 2.72204 5.8827 3.06902L6.07255 5.35496C6.10253 5.68254 6.36233 5.92746 6.68208 5.92746H20.1766C20.7861 5.92746 21.1858 6.14177 21.5855 6.6112C21.9852 7.08064 22.0551 7.75417 21.9652 8.36546L21.0159 15.06C20.836 16.3469 19.7569 17.2949 18.4879 17.2949H7.58637C6.25741 17.2949 5.15827 16.255 5.04835 14.9079L4.12907 3.78337L2.62024 3.51804C2.22056 3.4466 1.94077 3.04861 2.01072 2.6404C2.08066 2.22301 2.47036 1.94646 2.88004 2.00871L2.77821 2.00009ZM16.8891 9.70233H14.1213C13.7016 9.70233 13.3719 10.0391 13.3719 10.4677C13.3719 10.8861 13.7016 11.2331 14.1213 11.2331H16.8891C17.3088 11.2331 17.6385 10.8861 17.6385 10.4677C17.6385 10.0391 17.3088 9.70233 16.8891 9.70233Z" stroke="#718596"/>
</svg>

